<svg width="21" height="20" viewBox="0 0 21 20" fill="none" xmlns="http://www.w3.org/2000/svg">
<path d="M16.75 10.625H4.25C3.91848 10.625 3.60054 10.7567 3.36612 10.9911C3.1317 11.2255 3 11.5435 3 11.875V15.625C3 15.9565 3.1317 16.2745 3.36612 16.5089C3.60054 16.7433 3.91848 16.875 4.25 16.875H16.75C17.0815 16.875 17.3995 16.7433 17.6339 16.5089C17.8683 16.2745 18 15.9565 18 15.625V11.875C18 11.5435 17.8683 11.2255 17.6339 10.9911C17.3995 10.7567 17.0815 10.625 16.75 10.625ZM16.75 15.625H4.25V11.875H16.75V15.625ZM16.75 3.125H4.25C3.91848 3.125 3.60054 3.2567 3.36612 3.49112C3.1317 3.72554 3 4.04348 3 4.375V8.125C3 8.45652 3.1317 8.77446 3.36612 9.00888C3.60054 9.2433 3.91848 9.375 4.25 9.375H16.75C17.0815 9.375 17.3995 9.2433 17.6339 9.00888C17.8683 8.77446 18 8.45652 18 8.125V4.375C18 4.04348 17.8683 3.72554 17.6339 3.49112C17.3995 3.2567 17.0815 3.125 16.75 3.125ZM16.75 8.125H4.25V4.375H16.75V8.125ZM15.5 6.25C15.5 6.43542 15.445 6.61668 15.342 6.77085C15.239 6.92502 15.0926 7.04518 14.9213 7.11614C14.75 7.18709 14.5615 7.20566 14.3796 7.16949C14.1977 7.13331 14.0307 7.04402 13.8996 6.91291C13.7685 6.7818 13.6792 6.61475 13.643 6.4329C13.6068 6.25104 13.6254 6.06254 13.6964 5.89123C13.7673 5.71993 13.8875 5.57351 14.0417 5.4705C14.1958 5.36748 14.3771 5.3125 14.5625 5.3125C14.8111 5.3125 15.0496 5.41127 15.2254 5.58709C15.4012 5.7629 15.5 6.00136 15.5 6.25ZM15.5 13.75C15.5 13.9354 15.445 14.1167 15.342 14.2708C15.239 14.425 15.0926 14.5452 14.9213 14.6161C14.75 14.6871 14.5615 14.7057 14.3796 14.6695C14.1977 14.6333 14.0307 14.544 13.8996 14.4129C13.7685 14.2818 13.6792 14.1148 13.643 13.9329C13.6068 13.751 13.6254 13.5625 13.6964 13.3912C13.7673 13.2199 13.8875 13.0735 14.0417 12.9705C14.1958 12.8675 14.3771 12.8125 14.5625 12.8125C14.8111 12.8125 15.0496 12.9113 15.2254 13.0871C15.4012 13.2629 15.5 13.5014 15.5 13.75Z" fill="#4A5A5C"/>
</svg>
